<!-- Generated by IcoMoon.io -->
<svg version="1.1" xmlns="http://www.w3.org/2000/svg" width="16" height="16" viewBox="0 0 512 512">
<path fill="#000" d="M477.414 88.494h-82.173v-52.374c0-19.866-16.253-36.12-36.119-36.12s-36.119 16.254-36.119 36.12v52.374h-131.658v-52.374c0-19.866-16.254-36.12-36.12-36.12s-36.12 16.254-36.12 36.12v52.374h-84.34c-19.143 0-34.675 15.713-34.675 34.856v26.006c0 19.143 15.531 34.675 34.675 34.675h442.469c19.144 0 34.675-15.531 34.675-34.675v-26.007c0.182-19.144-15.35-34.855-34.493-34.855z"></path>
<path fill="#000" d="M477.414 216.539h-442.469c-19.324 0-34.855 15.531-34.855 34.856v225.93c0 19.144 15.531 34.675 34.675 34.675h442.469c19.144 0 34.675-15.531 34.675-34.675v-225.93c0.182-19.324-15.35-34.856-34.493-34.856zM146.917 445.901c-18.782 0-34.133-15.353-34.133-34.132 0-18.783 15.351-34.135 34.133-34.135s34.133 15.353 34.133 34.135c0 18.78-15.171 34.132-34.133 34.132zM148 351.086c-18.782 0-34.133-15.353-34.133-34.132 0-18.782 15.351-34.135 34.133-34.135s34.133 15.353 34.133 34.135c0 18.78-15.351 34.132-34.133 34.132zM256.179 445.901c-18.781 0-34.132-15.353-34.132-34.132 0-18.783 15.351-34.135 34.132-34.135 18.783 0 34.135 15.353 34.135 34.135 0 18.78-15.353 34.132-34.135 34.132zM257.083 351.086c-18.782 0-34.133-15.353-34.133-34.132 0-18.782 15.351-34.135 34.133-34.135s34.132 15.353 34.132 34.135c0 18.78-15.171 34.132-34.132 34.132zM365.264 445.901c-18.783 0-34.135-15.353-34.135-34.132 0-18.783 15.353-34.135 34.135-34.135 18.78 0 34.132 15.353 34.132 34.135 0 18.78-15.353 34.132-34.132 34.132zM366.164 351.086c-18.783 0-34.132-15.353-34.132-34.132 0-18.782 15.35-34.135 34.132-34.135s34.135 15.353 34.135 34.135c0.179 18.78-15.171 34.132-34.135 34.132z"></path>
</svg>
