<!-- Generated by IcoMoon.io -->
<svg version="1.1" xmlns="http://www.w3.org/2000/svg" width="16" height="16" viewBox="0 0 512 512">
<path fill="#4285f4" d="M506.56 261.76c0-16.853-1.493-32.853-4.053-48.427h-241.066v96.213h138.026c-6.187 31.574-24.32 58.24-51.2 76.373v64h82.346c48.214-44.587 75.947-110.293 75.947-188.16z"></path>
<path fill="#34a853" d="M261.44 512c69.12 0 126.933-23.040 169.173-62.080l-82.346-64c-23.040 15.36-52.267 24.747-86.827 24.747-66.774 0-123.306-45.014-143.573-105.813h-84.906v65.92c42.026 83.627 128.427 141.226 228.48 141.226z"></path>
<path fill="#fbbc05" d="M117.867 304.853c-5.334-15.36-8.106-31.786-8.106-48.853s2.987-33.493 8.106-48.853v-65.92h-84.906c-17.494 34.56-27.52 73.387-27.52 114.774s10.027 80.214 27.52 114.774l84.906-65.92z"></path>
<path fill="#ea4335" d="M261.44 101.334c37.76 0 71.466 13.014 98.133 38.4l72.96-72.96c-44.16-41.386-101.974-66.773-171.094-66.773-100.053 0-186.453 57.6-228.48 141.226l84.906 65.92c20.267-60.8 76.8-105.814 143.573-105.814z"></path>
</svg>
