<svg xmlns="http://www.w3.org/2000/svg">
    <defs>
    <symbol id="icon-calendar">
        <path fill="#000"
              d="M477.414 88.494h-82.173v-52.374c0-19.866-16.253-36.12-36.119-36.12s-36.119 16.254-36.119 36.12v52.374h-131.658v-52.374c0-19.866-16.254-36.12-36.12-36.12s-36.12 16.254-36.12 36.12v52.374h-84.34c-19.143 0-34.675 15.713-34.675 34.856v26.006c0 19.143 15.531 34.675 34.675 34.675h442.469c19.144 0 34.675-15.531 34.675-34.675v-26.007c0.182-19.144-15.35-34.855-34.493-34.855z"></path>
        <path fill="#000"
              d="M477.414 216.539h-442.469c-19.324 0-34.855 15.531-34.855 34.856v225.93c0 19.144 15.531 34.675 34.675 34.675h442.469c19.144 0 34.675-15.531 34.675-34.675v-225.93c0.182-19.324-15.35-34.856-34.493-34.856zM146.917 445.901c-18.782 0-34.133-15.353-34.133-34.132 0-18.783 15.351-34.135 34.133-34.135s34.133 15.353 34.133 34.135c0 18.78-15.171 34.132-34.133 34.132zM148 351.086c-18.782 0-34.133-15.353-34.133-34.132 0-18.782 15.351-34.135 34.133-34.135s34.133 15.353 34.133 34.135c0 18.78-15.351 34.132-34.133 34.132zM256.179 445.901c-18.781 0-34.132-15.353-34.132-34.132 0-18.783 15.351-34.135 34.132-34.135 18.783 0 34.135 15.353 34.135 34.135 0 18.78-15.353 34.132-34.135 34.132zM257.083 351.086c-18.782 0-34.133-15.353-34.133-34.132 0-18.782 15.351-34.135 34.133-34.135s34.132 15.353 34.132 34.135c0 18.78-15.171 34.132-34.132 34.132zM365.264 445.901c-18.783 0-34.135-15.353-34.135-34.132 0-18.783 15.353-34.135 34.135-34.135 18.78 0 34.132 15.353 34.132 34.135 0 18.78-15.353 34.132-34.132 34.132zM366.164 351.086c-18.783 0-34.132-15.353-34.132-34.132 0-18.782 15.35-34.135 34.132-34.135s34.135 15.353 34.135 34.135c0.179 18.78-15.171 34.132-34.135 34.132z"></path>
    </symbol>
    <symbol id="icon-google">
        <path fill="#4285f4"
              d="M506.56 261.76c0-16.853-1.493-32.853-4.053-48.427h-241.066v96.213h138.026c-6.187 31.574-24.32 58.24-51.2 76.373v64h82.346c48.214-44.587 75.947-110.293 75.947-188.16z"></path>
        <path fill="#34a853"
              d="M261.44 512c69.12 0 126.933-23.040 169.173-62.080l-82.346-64c-23.040 15.36-52.267 24.747-86.827 24.747-66.774 0-123.306-45.014-143.573-105.813h-84.906v65.92c42.026 83.627 128.427 141.226 228.48 141.226z"></path>
        <path fill="#fbbc05"
              d="M117.867 304.853c-5.334-15.36-8.106-31.786-8.106-48.853s2.987-33.493 8.106-48.853v-65.92h-84.906c-17.494 34.56-27.52 73.387-27.52 114.774s10.027 80.214 27.52 114.774l84.906-65.92z"></path>
        <path fill="#ea4335"
              d="M261.44 101.334c37.76 0 71.466 13.014 98.133 38.4l72.96-72.96c-44.16-41.386-101.974-66.773-171.094-66.773-100.053 0-186.453 57.6-228.48 141.226l84.906 65.92c20.267-60.8 76.8-105.814 143.573-105.814z"></path>
    </symbol>
    <symbol id="icon-gift">
        <path d="M82.704 493.512c0 0 0 0 0 0 0 10.209 8.275 18.485 18.485 18.485 0.018 0 0.036 0 0.054 0h120.11v-207.89h-138.649z"></path>
        <path d="M290.646 304.106v207.89h120.113c10.209 0 18.485-8.276 18.485-18.485v0-189.457z"></path>
        <path d="M59.663 220.95v46.199c0 10.209 8.276 18.485 18.485 18.485h143.206v-83.207h-143.206c-0.004 0-0.008 0-0.013 0-10.201 0-18.472 8.27-18.472 18.472 0 0.018 0 0.036 0 0.054v-0.003z"></path>
        <path d="M433.865 202.477h-143.219v83.207h143.219c10.203-0.007 18.473-8.28 18.473-18.485v0-46.25c0-10.202-8.27-18.472-18.473-18.472v0z"></path>
        <path d="M355.471 157.277c22.479-24.322 33.002-61.446 29.622-104.483-1.197-13.656-4.060-26.261-8.406-38.151l0.329 1.027c-0.077-0.23-0.217-0.435-0.32-0.665v0c-3.187-7.975-10.996-22.402-32.387-10.433-0.71 0.424-1.178 1.188-1.178 2.062 0 0.362 0.080 0.705 0.224 1.012l-0.006-0.014s9.716 19.778 12.89 41.718c0.256 1.895 0.499 3.84 0.653 5.671 2.752 35.101-5.12 64.607-22.197 83.079-10.689 11.521-24.565 18.178-38.109 18.178-10.023 0-17.551-0.32-24.322-4.238 4.034-5.764 7.805-12.343 10.978-19.255l0.326-0.792c9.459-20.648 9.486-42.026 0.089-57.196-6.091-10.079-16.827-16.817-29.165-17.242l-0.060-0.002h-0.806c-12.801 0.346-23.375 6.209-29.916 16.526-9.23 14.58-9.076 36.163 0.423 57.746 3.246 7.457 6.439 13.618 9.981 19.547l-0.431-0.78c-8.525 4.724-18.395 5.914-30.416 5.709-17.487-0.333-41.194-12.532-47.133-38.583-0.102-0.461-0.218-0.909-0.307-1.37-0.218-1.088-0.371-2.24-0.537-3.379-0.179-1.28-0.307-2.688-0.41-4.019s-0.205-2.752-0.205-4.199v0c-0.021-0.758-0.033-1.65-0.033-2.546 0-4.519 0.305-8.966 0.895-13.323l-0.056 0.507c0.005-0.059 0.008-0.127 0.008-0.197 0-1.169-0.833-2.143-1.939-2.361l-0.016-0.002c-23.042-4.263-27.228 9.972-27.228 19.061 0 47.978 39.402 78.087 76.525 78.637h2.841c15.822 0 31.785-2.227 46.429-12.11 12.378 9.626 26.55 12.097 44.496 12.097 21.391 0.025 42.845-9.921 58.873-27.241zM257.863 120.153q-2.023 4.442-4.109 8.205-1.805-3.662-3.726-8.013c-6.286-14.273-5.735-25.948-2.419-31.197 0.986-1.561 2.56-3.162 6.323-3.367 1.587 0.115 3.763 0.743 5.696 3.841 3.238 5.287 4.724 16.41-1.767 30.556z"></path>
    </symbol>
    </defs>
</svg>
